<svg width="128" height="128" viewBox="0 0 128 128" fill="none" xmlns="http://www.w3.org/2000/svg">
<rect x="62" y="14" width="4" height="100" fill="black"/>
<rect x="14" y="66" width="4" height="100" transform="rotate(-90 14 66)" fill="black"/>
<rect x="16" y="16" width="20" height="20" fill="#C4C4C4"/>
<rect x="16" y="69" width="20" height="20" fill="#C4C4C4"/>
<rect x="69" y="16" width="20" height="20" fill="#C4C4C4"/>
<rect x="69" y="69" width="20" height="20" fill="#C4C4C4"/>
<rect x="16" y="39" width="20" height="20" fill="#C4C4C4"/>
<rect x="16" y="92" width="20" height="20" fill="#C4C4C4"/>
<rect x="69" y="39" width="20" height="20" fill="#C4C4C4"/>
<rect x="69" y="92" width="20" height="20" fill="#C4C4C4"/>
<rect x="39" y="16" width="20" height="20" fill="#C4C4C4"/>
<rect x="39" y="69" width="20" height="20" fill="#C4C4C4"/>
<rect x="92" y="16" width="20" height="20" fill="#C4C4C4"/>
<rect x="92" y="69" width="20" height="20" fill="#C4C4C4"/>
<rect x="39" y="39" width="20" height="20" fill="#C4C4C4"/>
<rect x="39" y="92" width="20" height="20" fill="#C4C4C4"/>
<rect x="92" y="39" width="20" height="20" fill="#C4C4C4"/>
<rect x="92" y="92" width="20" height="20" fill="#C4C4C4"/>
</svg>
